# xmcd
#
# Track frame offsets:
#  150
#  13075
#  29597
#  48370
#  63140
#  77832
#  92890
#  103440
#  122142
#  132265
#  147737
#  157607
#  169650
#  187132
#  200162
#  218272
#
# Disc length: 3052 seconds
#
# Revision: 1
# Processed by: cddbd v1.5.2PL0 Copyright (c) Steve Scherf et al.
# Submitted via: Collectorz.com_Music_Collector 6.11
#
DISCID=e70bea10
DTITLE=Clip Clop Club - Beautiful
DYEAR=2003
DGENRE=Country
TTITLE0=Gone Up the Trail
TTITLE1=Sunset on the Sage
TTITLE2=I Wish I was a Cowboy
TTITLE3=Rabbit Shootin'
TTITLE4=Twilight on the Trail
TTITLE5=Gone Fishin'
TTITLE6=Cool Water
TTITLE7=Cowboy Heaven
TTITLE8=Dad Found the Hand in the Hay Bale
TTITLE9=Ghostriders in the Sky
TTITLE10=Big Sky Country
TTITLE11=Someone Stole My Potplants
TTITLE12=Cling to Me
TTITLE13=God's Been a Cowboy Sometime
TTITLE14=Too Many Chiefs
TTITLE15=There's a Long Long Trail A-Winding
EXTD=
EXTT0=
EXTT1=
EXTT2=
EXTT3=
EXTT4=
EXTT5=
EXTT6=
EXTT7=
EXTT8=
EXTT9=
EXTT10=
EXTT11=
EXTT12=
EXTT13=
EXTT14=
EXTT15=
PLAYORDER=
